<svg id="Group_1165" data-name="Group 1165" xmlns="http://www.w3.org/2000/svg" xmlns:xlink="http://www.w3.org/1999/xlink" width="113.811" height="89.484" viewBox="0 0 113.811 89.484">
  <defs>
    <clipPath id="clip-path">
      <rect id="Rectangle_11602" data-name="Rectangle 11602" width="113.811" height="89.484" fill="#00ff5c"/>
    </clipPath>
  </defs>
  <g id="Group_1164" data-name="Group 1164" clip-path="url(#clip-path)">
    <path id="Path_5176" data-name="Path 5176" d="M16.278,63.4c0,7.008-.013,14.017.019,21.025,0,.756-.474,1.829,1.04,1.949,1.337.105,1.868-.34,2.177-1.67,1.2-5.149,1.9-10.435,3.785-15.4A27.871,27.871,0,0,1,49.066,51.249c1.821-.038,1.843.668,1.493,2.032q-2.8,10.942-5.551,21.9c-.678,2.685-.2,3.979,2.118,5.549,2.363,1.6,4.754,3.162,7.129,4.747a4.285,4.285,0,0,0,5.139.049c2.55-1.689,5.121-3.347,7.65-5.067a4.2,4.2,0,0,0,1.783-4.971c-1.922-7.493-3.749-15.01-5.7-22.5-.384-1.475.038-1.734,1.409-1.726A27.922,27.922,0,0,1,91.6,73.052c.9,3.972,1.91,7.921,2.688,11.916.294,1.508,1.171,1.375,2.207,1.388,1.346.016,1.068-.954,1.069-1.718q.013-21.025,0-42.051c-.006-3.114-1.667-4.734-4.839-4.769-4.286-.046-8.574.007-12.86-.022-2.917-.02-4.647-1.516-4.683-3.955-.037-2.509,1.744-4.111,4.746-4.139,4.355-.041,8.711-.081,13.064.007,7.658.156,12.678,5.272,12.7,12.991q.068,20.719-.029,41.438c-.01,1.791.436,2.306,2.248,2.265,4.7-.107,5.834,1.176,5.9,5.912.057,3.985-.489,7.73-3.395,10.773a12.478,12.478,0,0,1-9.34,3.884c-12.792.05-25.584,0-38.376.052-1.449.006-1.866-.44-1.823-1.852.094-3.059-.013-6.124.049-9.185.023-1.152-.35-1.62-1.515-1.512-2.143.2-4.877-.914-6.278.474-1.212,1.2-.278,3.886-.343,5.913q-.075,2.346,0,4.694c.034,1.007-.254,1.457-1.366,1.453-13.132-.036-26.267.127-39.4-.1C4.882,106.783.082,101.442.007,94.332,0,93.311,0,92.291.006,91.27.032,87.9,1.459,86.448,4.84,86.358c3.3-.087,3.3-.087,3.3-3.4q0-19.9,0-39.806c.005-8.513,4.884-13.423,13.389-13.464,4.286-.021,8.574-.041,12.859.034a3.949,3.949,0,0,1,4.053,3.066,4,4,0,0,1-1.959,4.528,5.094,5.094,0,0,1-2.769.474c-4.151.019-8.3-.011-12.452.016-3.49.023-4.97,1.5-4.977,4.973-.016,6.872,0,13.745,0,20.617" transform="translate(0 -17.548)" fill="#00ff5c"/>
    <path id="Path_5177" data-name="Path 5177" d="M116.072,32.423a16.039,16.039,0,0,1-16.058-16.275,16.065,16.065,0,1,1,32.128.164,16.139,16.139,0,0,1-16.071,16.112" transform="translate(-59.181 -0.001)" fill="#00ff5c"/>
  </g>
</svg>
