<svg id="Group_1163" data-name="Group 1163" xmlns="http://www.w3.org/2000/svg" xmlns:xlink="http://www.w3.org/1999/xlink" width="99.778" height="108.853" viewBox="0 0 99.778 108.853">
  <defs>
    <clipPath id="clip-path">
      <rect id="Rectangle_11601" data-name="Rectangle 11601" width="99.778" height="108.853" fill="#00ff5c"/>
    </clipPath>
  </defs>
  <g id="Group_1162" data-name="Group 1162" clip-path="url(#clip-path)">
    <path id="Path_5167" data-name="Path 5167" d="M85.316,119.944q13.34,0,26.679.006a4.54,4.54,0,0,1,4.569,2.87,4.693,4.693,0,0,1-1.139,5,4.9,4.9,0,0,1-3.939,1.217c-1.423-.14-2,.333-2.139,1.771-.77,7.883-1.608,15.759-2.432,23.636a29.915,29.915,0,0,1-.422,3.024c-.422,2.016-3.028,3.622-5.132,3.293-.939-.147-.711-.924-.852-1.432-1.613-5.784-5.173-9.716-10.947-11.5a15.808,15.808,0,0,0-19.483,10.356c-.283.883.252,2.511-1.507,2.539-2.365.037-4.3-1.23-4.745-3.1a24.535,24.535,0,0,1-.448-3.02q-1.113-10.378-2.2-20.759c-.131-1.237-.307-2.47-.387-3.71-.058-.895-.5-1.109-1.317-1.085a10.44,10.44,0,0,1-2.358-.166,4.284,4.284,0,0,1-3.651-4.747,4.374,4.374,0,0,1,4.325-4.173c1.866-.078,3.738-.022,5.607-.022H85.316" transform="translate(-35.271 -79.136)" fill="#00ff5c"/>
    <path id="Path_5168" data-name="Path 5168" d="M111.562,80.321c-4.589,0-9.178.011-13.768,0-3.284-.01-4.527-1.382-4.253-4.641.382-4.531,4.322-8.7,8.868-8.847,6.111-.2,12.24-.224,18.349.006,5,.188,9.068,5.027,8.9,10.052-.073,2.183-1.453,3.409-3.989,3.424-4.7.029-9.4.008-14.108.008" transform="translate(-61.702 -43.995)" fill="#00ff5c"/>
    <path id="Path_5169" data-name="Path 5169" d="M120.061,293.294c-3.171,0-6.341.017-9.511-.005-2.752-.019-4.156-1.609-3.887-4.342A9.92,9.92,0,0,1,115,279.926a34.364,34.364,0,0,1,10.651.026,9.951,9.951,0,0,1,8.177,9.341,3.461,3.461,0,0,1-3.742,3.993c-3.34.033-6.681.008-10.021.008" transform="translate(-70.363 -184.452)" fill="#00ff5c"/>
    <path id="Path_5170" data-name="Path 5170" d="M226.977,293.3c-3.226,0-6.452.019-9.677-.005-2.677-.02-3.918-1.368-3.8-4.053a9.806,9.806,0,0,1,8.018-9.256,33.8,33.8,0,0,1,11.145.017,10.044,10.044,0,0,1,7.995,9.693,3.46,3.46,0,0,1-3.663,3.593c-3.339.04-6.678.011-10.017.011" transform="translate(-140.879 -184.454)" fill="#00ff5c"/>
    <path id="Path_5171" data-name="Path 5171" d="M13.51,293.473c-3.226,0-6.452.021-9.677-.006-2.716-.023-4.155-1.731-3.772-4.4.813-5.664,4.816-9.2,10.547-9.185,2.821.009,5.661-.306,8.466.239a10,10,0,0,1,8.061,9.6c.036,2.367-1.217,3.715-3.608,3.745-3.338.041-6.678.01-10.017.011" transform="translate(0 -184.631)" fill="#00ff5c"/>
    <path id="Path_5172" data-name="Path 5172" d="M128.957,18.087a9.053,9.053,0,0,1-9.093-9.036,9.1,9.1,0,0,1,18.2.019,9.05,9.05,0,0,1-9.11,9.017" transform="translate(-79.096 0.001)" fill="#00ff5c"/>
    <path id="Path_5173" data-name="Path 5173" d="M26.7,226.8a6.642,6.642,0,0,1,6.759,6.764,6.779,6.779,0,0,1-6.759,6.827,6.954,6.954,0,0,1-6.829-6.833A6.789,6.789,0,0,1,26.7,226.8" transform="translate(-13.11 -149.658)" fill="#00ff5c"/>
    <path id="Path_5174" data-name="Path 5174" d="M233.435,233.578a6.634,6.634,0,0,1,6.741-6.782,6.781,6.781,0,0,1,6.847,6.739,6.95,6.95,0,0,1-6.81,6.851,6.784,6.784,0,0,1-6.778-6.808" transform="translate(-154.039 -149.658)" fill="#00ff5c"/>
    <path id="Path_5175" data-name="Path 5175" d="M140.233,233.474a6.8,6.8,0,1,1-13.605.182,6.8,6.8,0,0,1,13.605-.182" transform="translate(-83.558 -149.666)" fill="#00ff5c"/>
  </g>
</svg>
