<svg id="Group_1176" data-name="Group 1176" xmlns="http://www.w3.org/2000/svg" xmlns:xlink="http://www.w3.org/1999/xlink" width="52.992" height="70.622" viewBox="0 0 52.992 70.622">
  <defs>
    <clipPath id="clip-path">
      <rect id="Rectangle_11607" data-name="Rectangle 11607" width="52.992" height="70.622" fill="#fff"/>
    </clipPath>
  </defs>
  <g id="Group_1175" data-name="Group 1175" clip-path="url(#clip-path)">
    <path id="Path_5189" data-name="Path 5189" d="M52.991,39.812q0,12.8,0,25.6c0,3.52-1.686,5.21-5.2,5.211q-21.3,0-42.591,0c-3.514,0-5.2-1.688-5.2-5.206Q0,39.705,0,14C0,10.488,1.694,8.8,5.214,8.8c2.391,0,4.782-.022,7.172.014.659.01.96-.146.87-.851a7.433,7.433,0,0,1-.005-1.212A2.208,2.208,0,0,1,15.6,4.395q1.93-.047,3.861,0a1,1,0,0,0,1.088-.646,6.313,6.313,0,0,1,6-3.751,6.307,6.307,0,0,1,5.9,3.747,1,1,0,0,0,1.085.65c1.213-.034,2.427-.021,3.641-.008,1.752.019,2.547.824,2.575,2.579C39.774,8.8,39.774,8.8,41.594,8.8c2.133,0,4.266-.006,6.4,0,3.224.01,4.992,1.761,4.995,4.969q.01,13.02,0,26.04m-4.423.02c0-8.532-.012-17.063.02-25.595,0-.827-.206-1.06-1.034-1.033-1.984.063-3.971.02-5.957.02-1.823,0-1.823,0-1.852,1.83-.026,1.705-.82,2.575-2.46,2.579q-10.811.022-21.623,0a2.211,2.211,0,0,1-2.412-2.4,8.854,8.854,0,0,1,.005-1.213c.068-.63-.177-.814-.8-.805-2.316.033-4.634.05-6.95-.006-.848-.021-1.1.19-1.1,1.078q.043,25.429,0,50.858c0,.887.254,1.079,1.1,1.077q20.961-.038,41.922.01c1.047,0,1.166-.347,1.162-1.243-.031-8.384-.019-16.769-.019-25.153M26.508,13.216c2.645,0,5.29-.016,7.935.012.627.007.946-.093.9-.828a24.99,24.99,0,0,1,0-2.864c.027-.594-.193-.757-.758-.739-1.138.036-2.278.025-3.416.006A2.223,2.223,0,0,1,28.7,6.668C28.488,5.214,27.686,4.4,26.484,4.4s-1.975.812-2.2,2.288A2.213,2.213,0,0,1,21.919,8.8c-1.138.027-2.28.05-3.415-.009-.707-.037-.885.22-.847.878a21,21,0,0,1,0,2.643c-.05.726.2.93.918.918,2.644-.041,5.29-.016,7.935-.016" transform="translate(0 0)" fill="#fff"/>
    <path id="Path_5190" data-name="Path 5190" d="M46.7,133.132a2.406,2.406,0,0,1-1.727-.755c-1.4-1.4-2.826-2.787-4.2-4.217a2.2,2.2,0,1,1,3.093-3.127,22.829,22.829,0,0,1,2.019,2.031c.59.705.976.549,1.543-.035,2.049-2.108,4.149-4.165,6.22-6.252a2.283,2.283,0,0,1,2.785-.656,2.178,2.178,0,0,1,.512,3.606c-1.679,1.749-3.417,3.443-5.131,5.159q-1.714,1.716-3.432,3.428a2.482,2.482,0,0,1-1.681.817" transform="translate(-31.179 -93.421)" fill="#fff"/>
    <path id="Path_5191" data-name="Path 5191" d="M42.167,204.316a2.438,2.438,0,0,1,1.716.761c.7.7,1.444,1.367,2.1,2.112.5.578.826.457,1.3-.031,2.082-2.127,4.2-4.217,6.3-6.327a2.393,2.393,0,0,1,2.357-.866,2.187,2.187,0,0,1,1.024,3.729c-1.227,1.316-2.534,2.558-3.806,3.832-1.558,1.56-3.106,3.13-4.676,4.677-1.292,1.272-2.432,1.271-3.722,0-1.387-1.367-2.764-2.745-4.119-4.144a2.065,2.065,0,0,1-.43-2.442,2.157,2.157,0,0,1,1.957-1.3" transform="translate(-31.16 -155.771)" fill="#fff"/>
    <path id="Path_5192" data-name="Path 5192" d="M146.685,139.85c1.358,0,2.716-.012,4.074,0a2.257,2.257,0,0,1,2.518,2.177,2.23,2.23,0,0,1-2.457,2.236q-4.184.028-8.369,0a2.216,2.216,0,1,1,.049-4.41c1.395-.02,2.79,0,4.185,0" transform="translate(-109.128 -108.972)" fill="#fff"/>
    <path id="Path_5193" data-name="Path 5193" d="M146.56,224.259c-1.358,0-2.716.017-4.074,0a2.216,2.216,0,1,1-.019-4.411q4.184-.03,8.369,0a2.216,2.216,0,1,1,.019,4.41c-1.431.022-2.863,0-4.295,0" transform="translate(-109.127 -171.299)" fill="#fff"/>
  </g>
</svg>
