<svg xmlns="http://www.w3.org/2000/svg" xmlns:xlink="http://www.w3.org/1999/xlink" width="248.627" height="60.238" viewBox="0 0 248.627 60.238">
  <defs>
    <clipPath id="clip-path">
      <rect id="Rectangle_1" data-name="Rectangle 1" width="59.829" height="60.238" fill="#00ff5c"/>
    </clipPath>
  </defs>
  <g id="Group_4" data-name="Group 4" transform="translate(-227.46 -77)">
    <g id="Group_2" data-name="Group 2" transform="translate(227.46 77)">
      <g id="Group_1" data-name="Group 1" clip-path="url(#clip-path)">
        <path id="Path_1" data-name="Path 1" d="M27.609,0h4.556A.351.351,0,0,0,32.4.044q2.949.081,5.883.4a52.265,52.265,0,0,1,8.823,1.672,30.355,30.355,0,0,1,7.587,3.175,12.049,12.049,0,0,1,3.82,3.406,5.757,5.757,0,0,1,.474,6.147,8.774,8.774,0,0,1-1.719,2.295.335.335,0,0,0-.078.462A28.749,28.749,0,0,1,59.622,25.1a4.214,4.214,0,0,1-1.73,4.439,6.892,6.892,0,0,1-3.837,1.289,8.544,8.544,0,0,1-3.85-.687,1.163,1.163,0,0,1-.675-1.71,5.412,5.412,0,0,1,.24-.492A6.405,6.405,0,0,1,52.846,25.2c.13-.054.235-.075.2-.276a17.412,17.412,0,0,0-1.265-3.955c-.074-.165-.144-.209-.326-.135a35.8,35.8,0,0,1-5.594,1.735c-2.076.476-4.161.9-6.273,1.184a.367.367,0,0,0-.34.317,38.209,38.209,0,0,0-1.389,15.235,33.618,33.618,0,0,0,2.1,8.541A15.322,15.322,0,0,0,42.9,52.79a6.723,6.723,0,0,0,2.072,1.6,2.805,2.805,0,0,0,3.071-.3,6.807,6.807,0,0,0,1.091-1.038,18.211,18.211,0,0,0,3.756-7.235.254.254,0,0,0,0-.229,6.206,6.206,0,0,1-1.255.341,1.28,1.28,0,0,1-1.5-1.465,7.707,7.707,0,0,1,1.339-3.724,4.931,4.931,0,0,1,4.614-2.271,3.876,3.876,0,0,1,3.593,3.028c.06.265.1.536.144.8v.713c-.065.422-.113.848-.2,1.266a29.684,29.684,0,0,1-4.4,10.5,14.337,14.337,0,0,1-3.4,3.7,8.249,8.249,0,0,1-6.482,1.647,9.915,9.915,0,0,1-4.918-2.391A17.6,17.6,0,0,1,36.165,51.9a33.408,33.408,0,0,1-2.783-9.736,54.371,54.371,0,0,1-.57-8.909,46.487,46.487,0,0,1,.335-4.921,32.665,32.665,0,0,1,.658-3.749c.05-.2,0-.255-.2-.238-.374.03-.749.041-1.123.056q-3.128.119-6.253-.057c-.253-.015-.309.034-.248.29a37.586,37.586,0,0,1,.9,6.507,53.748,53.748,0,0,1-.094,7.507,45.668,45.668,0,0,1-1.494,8.738,24.264,24.264,0,0,1-3.625,7.784,12.719,12.719,0,0,1-4.3,3.921,8.289,8.289,0,0,1-7.845.3A10.952,10.952,0,0,1,5.667,56.2,28.832,28.832,0,0,1,.279,44.705C.153,44.163.1,43.608,0,43.062v-.768c.02-.116.045-.231.06-.347a3.718,3.718,0,0,1,2.3-3.137,4.8,4.8,0,0,1,5.42,1.221,7.5,7.5,0,0,1,1.894,4.29,1.316,1.316,0,0,1-1.7,1.567c-.354-.078-.7-.2-1.049-.3a.15.15,0,0,0-.019.051.505.505,0,0,0,.015.108,18.142,18.142,0,0,0,3.971,7.513A5.364,5.364,0,0,0,12.1,54.293a2.6,2.6,0,0,0,2.289.258,5.4,5.4,0,0,0,1.938-1.213,12.892,12.892,0,0,0,2.941-4.224,33.116,33.116,0,0,0,2.85-12.31,38.478,38.478,0,0,0-1.531-12.54c-.1-.337-.215-.554-.609-.536a3.133,3.133,0,0,1-.6-.087A45.725,45.725,0,0,1,8.417,20.723c-.169-.071-.235-.036-.308.121a16.864,16.864,0,0,0-1.323,4.079c-.026.144-.005.205.136.264A6.246,6.246,0,0,1,10.3,28.454a1.148,1.148,0,0,1-.63,1.664,8.579,8.579,0,0,1-3.542.725A7.165,7.165,0,0,1,2.14,29.688,4.178,4.178,0,0,1,.192,26.828a5.518,5.518,0,0,1,.062-2.1,31.09,31.09,0,0,1,2.412-7.2.278.278,0,0,0-.076-.392A9.072,9.072,0,0,1,1.418,15.8a5.914,5.914,0,0,1,.065-7.352A12.325,12.325,0,0,1,4.9,5.43a29,29,0,0,1,7.746-3.281A61.784,61.784,0,0,1,27.182.049.823.823,0,0,0,27.609,0M5.537,12.883c.3-.259.607-.5.886-.777A9.389,9.389,0,0,1,18.3,10.774a13.166,13.166,0,0,1,4.748,5.383,31.359,31.359,0,0,1,1.48,3.505c.053.146.1.252.293.259.557.022,1.113.074,1.67.1a68.514,68.514,0,0,0,8.417-.1.319.319,0,0,0,.33-.25,30.528,30.528,0,0,1,1.168-2.865,13.321,13.321,0,0,1,4.711-5.8,9.387,9.387,0,0,1,9.587-.834,10.51,10.51,0,0,1,3.336,2.591c.059.064.1.192.2.163s.085-.169.1-.262a2.381,2.381,0,0,0-.424-1.87A7.071,7.071,0,0,0,51.96,9.06a22.564,22.564,0,0,0-6.111-2.651A53.208,53.208,0,0,0,31.233,4.358,73.827,73.827,0,0,0,20,5.163a44.474,44.474,0,0,0-6.954,1.53A19.46,19.46,0,0,0,7.179,9.541,5.241,5.241,0,0,0,5.8,10.974a2.283,2.283,0,0,0-.26,1.909m36,6.167c.123-.016.176-.021.228-.031q2.086-.4,4.134-.956a29.923,29.923,0,0,0,3.161-1.07c.086-.034.215-.056.086-.2a6.886,6.886,0,0,0-1.462-1.311,2.645,2.645,0,0,0-2.767.021,9.122,9.122,0,0,0-3.38,3.547M18.2,19.06a1.092,1.092,0,0,0-.051-.142,10.81,10.81,0,0,0-1.674-2.192,5.432,5.432,0,0,0-2.32-1.5,2.4,2.4,0,0,0-2.188.367,7.668,7.668,0,0,0-1.188,1.09c-.2.234-.21.231.074.346a34.078,34.078,0,0,0,5.66,1.689c.55.118,1.1.225,1.687.344" fill="#00ff5c"/>
      </g>
    </g>
    <path id="Path_2" data-name="Path 2" d="M41.683-47.908H25.519v7.663h6.7V-31.1a15.042,15.042,0,0,1-4.765.58c-8.05,0-13.717-5.216-13.717-14.232,0-9.467,6.247-14.039,14.425-14.039a22.75,22.75,0,0,1,10.046,1.868l2.061-7.921a31.35,31.35,0,0,0-12.042-2.061c-14.232,0-24.729,8.243-24.793,22.668C3.43-37.862,5.62-32.2,9.548-28.4c3.993,3.8,9.724,5.8,17.645,5.8a48.573,48.573,0,0,0,14.49-2.447Zm28.142-19.32C57.074-67.228,48.7-57.5,48.7-44.5c0,12.429,7.6,22.153,20.414,22.153,12.751,0,21.316-8.565,21.316-22.861C90.432-57.246,83.155-67.228,69.825-67.228Zm-.193,7.792c6.762,0,10.433,6.7,10.433,14.554,0,8.436-3.8,14.747-10.433,14.747-6.569,0-10.561-5.989-10.561-14.554C59.07-53.125,62.934-59.436,69.632-59.436Zm64.849,11.527H118.317v7.663h6.7V-31.1a15.042,15.042,0,0,1-4.765.58c-8.05,0-13.717-5.216-13.717-14.232,0-9.467,6.247-14.039,14.425-14.039A22.75,22.75,0,0,1,131-56.924l2.061-7.921a31.35,31.35,0,0,0-12.042-2.061c-14.232,0-24.729,8.243-24.793,22.668,0,6.375,2.19,12.043,6.118,15.842,3.993,3.8,9.724,5.8,17.645,5.8a48.573,48.573,0,0,0,14.49-2.447Zm31.555,13.717,3.349,11.141H180.01l-13.524-43.4h-12.88l-13.2,43.4h10.111l3.091-11.141Zm-11.012-7.341,2.576-9.209c.708-2.512,1.352-5.8,2-8.372h.129c.644,2.576,1.417,5.8,2.19,8.372l2.7,9.209Z" transform="translate(295.058 151.904)" fill="none" stroke="#00ff5c" stroke-width="1.5"/>
  </g>
</svg>
