<svg id="Group_1161" data-name="Group 1161" xmlns="http://www.w3.org/2000/svg" xmlns:xlink="http://www.w3.org/1999/xlink" width="70.251" height="73.671" viewBox="0 0 70.251 73.671">
  <defs>
    <clipPath id="clip-path">
      <rect id="Rectangle_11600" data-name="Rectangle 11600" width="70.251" height="73.671" fill="#00ff5c"/>
    </clipPath>
  </defs>
  <g id="Group_1160" data-name="Group 1160" clip-path="url(#clip-path)">
    <path id="Path_5164" data-name="Path 5164" d="M30.975,53.621q-11.845,0-23.69,0c-2.359,0-3.791-1.2-3.88-3.186a3.259,3.259,0,0,1,3.5-3.529c5.1-.022,10.194-.007,15.292-.008.376,0,.753.01,1.128,0a3.334,3.334,0,0,0,.386-6.654,9.479,9.479,0,0,0-1.375-.048c-6.225,0-12.451.014-18.676-.011C1,40.167-.537,38.173.2,35.8a3.156,3.156,0,0,1,3.012-2.225c1.711-.053,3.426-.011,5.138-.028,1.951-.019,2.535-.749,2.259-2.667Q9.132,20.6,7.684,10.316c-.041-.288-.123-.571-.18-.857-.174-.879.126-2.114-.578-2.551-.67-.415-1.784-.164-2.7-.12C2.5,6.87,1.035,6.443.3,4.744A3.291,3.291,0,0,1,3.265.094a63.593,63.593,0,0,1,6.89,0c1.959.1,3.007,1.291,3.317,3.44.423,2.931.9,5.855,1.223,8.8.114,1.048.559,1.171,1.436,1.17,14.749-.019,29.5.008,44.246-.03a9.379,9.379,0,0,1,8.189,3.992,8.773,8.773,0,0,1,1.407,7.4c-1.677,6.967-3.38,13.929-5.2,20.858-1.362,5.174-5.083,7.892-10.479,7.9q-11.657.018-23.314,0" transform="translate(0 0)" fill="#00ff5c"/>
    <path id="Path_5165" data-name="Path 5165" d="M80.083,246.914a6.664,6.664,0,0,1-6.614,6.751,6.711,6.711,0,0,1-.081-13.422,6.667,6.667,0,0,1,6.695,6.671" transform="translate(-50.008 -179.995)" fill="#00ff5c"/>
    <path id="Path_5166" data-name="Path 5166" d="M200.083,246.911a6.664,6.664,0,0,1-6.611,6.754,6.711,6.711,0,0,1-.087-13.422,6.667,6.667,0,0,1,6.7,6.667" transform="translate(-139.915 -179.996)" fill="#00ff5c"/>
  </g>
</svg>
