<svg id="Group_1154" data-name="Group 1154" xmlns="http://www.w3.org/2000/svg" xmlns:xlink="http://www.w3.org/1999/xlink" width="96.88" height="96.953" viewBox="0 0 96.88 96.953">
  <defs>
    <clipPath id="clip-path">
      <rect id="Rectangle_11597" data-name="Rectangle 11597" width="96.88" height="96.953" fill="#00ff5c"/>
    </clipPath>
  </defs>
  <g id="Group_1153" data-name="Group 1153" clip-path="url(#clip-path)">
    <path id="Path_5148" data-name="Path 5148" d="M106.325,95.7c.794.717,1.576,1.359,2.283,2.075,1.231,1.246,1.23,2.1-.015,3.359q-3.829,3.876-7.707,7.7c-1.2,1.185-2.065,1.19-3.248.02-.751-.742-1.407-1.58-1.958-2.207-2.467.97-4.623,1.789-6.748,2.684a1.362,1.362,0,0,0-.661.951c-.1.847-.009,1.713-.041,2.569a2.062,2.062,0,0,1-2.265,2.258q-5.6.056-11.2,0c-1.45-.017-2.37-.86-2.162-2.308.368-2.549-.505-3.923-3.07-4.326a4.869,4.869,0,0,1-2.2-.956c-1.478-1.185-2.4-.547-3.484.622-2.039,2.2-2.5,2.143-4.632.015q-3.425-3.425-6.847-6.852c-1.477-1.487-1.493-2.239-.044-3.687.676-.676,1.424-1.28,2-1.789-.951-2.409-1.758-4.569-2.681-6.678a1.548,1.548,0,0,0-1.233-.674c-5.174.279-4.55-1.23-4.537-4.744.01-2.775-.007-5.551.009-8.326.011-1.957.7-2.627,2.637-2.65,2.848-.033,2.817-.045,3.877-2.768.564-1.447,1.257-2.845,2.066-4.652-.712-.6-1.606-1.266-2.385-2.044-1.063-1.063-1.082-1.975-.051-3.026q3.976-4.051,8.028-8.025a1.87,1.87,0,0,1,3.031.011c.784.776,1.461,1.658,2.02,2.3,2.468-.981,4.577-1.785,6.649-2.676.35-.15.555-.664.79-1.032.069-.108.011-.3.013-.448.058-4.271.1-4.312,4.319-4.312,2.927,0,5.854-.013,8.782.005,1.843.012,2.553.736,2.588,2.556.055,2.922.067,2.892,2.847,3.976,1.4.546,2.753,1.224,4.521,2.019.627-.717,1.349-1.614,2.147-2.437a1.857,1.857,0,0,1,2.926-.024q4.095,4.039,8.138,8.13a1.864,1.864,0,0,1-.031,2.929c-.788.778-1.639,1.492-2.316,2.1.954,2.422,1.759,4.581,2.679,6.691a1.539,1.539,0,0,0,1.221.691c5.267-.307,4.55,1.278,4.551,4.712,0,2.725.006,5.45,0,8.175-.006,2.142-.674,2.815-2.775,2.835-2.735.025-2.726.028-3.684,2.6-.28.754-.6,1.494-.939,2.226s-.706,1.437-1.2,2.429m-7.576,9.384,6.1-6.014a17.128,17.128,0,0,1-1.439-1.164c-1.637-1.612-1.541-1.956-.525-4.066a61.185,61.185,0,0,0,2.92-7.253,2.424,2.424,0,0,1,2.576-2.016c.839.013,1.678,0,2.531,0V76.6c-.992,0-1.892.025-2.79-.006a2.291,2.291,0,0,1-2.24-1.675c-1.053-2.76-2.16-5.5-3.359-8.2-.519-1.17-.567-2.136.428-2.992.685-.589,1.433-1.106,1.924-1.482l-6-6.137A17,17,0,0,1,97.7,57.587c-1.559,1.591-1.994,1.507-3.941.577a66.075,66.075,0,0,0-7.387-2.982,2.452,2.452,0,0,1-2-2.6c.009-.834,0-1.668,0-2.478H76.409c0,1.01.027,1.914-.007,2.817a2.3,2.3,0,0,1-1.732,2.2q-4.137,1.587-8.2,3.364c-1.107.485-2.058.545-2.873-.395-.618-.712-1.138-1.509-1.6-2.128L55.786,62.1a15.02,15.02,0,0,1,1.651,1.229c1.529,1.478,1.444,1.949.563,3.815a76.352,76.352,0,0,0-3.038,7.528A2.381,2.381,0,0,1,52.617,76.6c-.893.028-1.787.005-2.757.005v7.968c.958,0,1.852-.007,2.747,0a2.314,2.314,0,0,1,2.319,1.767c1.025,2.717,2.108,5.417,3.308,8.061.562,1.237.581,2.232-.464,3.112-.683.575-1.444,1.057-2,1.462l6.142,6.235a12.065,12.065,0,0,1,1.112-1.547c1.688-1.739,1.951-1.629,4.178-.555a62.333,62.333,0,0,0,7.261,2.9,2.4,2.4,0,0,1,1.955,2.475c.007.883,0,1.766,0,2.611h7.96c0-.865.016-1.619,0-2.372-.039-1.529.635-2.259,2.167-2.758a65.911,65.911,0,0,0,7.628-3.2c1.218-.574,2.215-.655,3.119.393.59.684,1.1,1.436,1.464,1.915" transform="translate(-31.954 -32.125)" fill="#00ff5c"/>
    <path id="Path_5149" data-name="Path 5149" d="M13.2,75.86a8.612,8.612,0,0,1,6.33-.458A7.934,7.934,0,1,1,14.244,90.36a7.805,7.805,0,0,1-4.5-10.532A2.262,2.262,0,0,0,9.4,77.177,48.441,48.441,0,0,1,57.489.859c1.477.278,2.312,1.179,2.116,2.254-.221,1.215-1.218,1.747-2.835,1.469-13.3-2.281-25.4.536-36,8.907A43.086,43.086,0,0,0,4.17,42.86a43.856,43.856,0,0,0,8.505,32.368c.145.2.315.38.526.632m3.77,11.2a4.141,4.141,0,1,0-4.087-4.143,4.125,4.125,0,0,0,4.087,4.143" transform="translate(0 0)" fill="#00ff5c"/>
    <path id="Path_5150" data-name="Path 5150" d="M169.791,35.106c-3.714,1.519-6.979,1.146-9.7-1.735a7.877,7.877,0,0,1-.274-10.384,7.966,7.966,0,0,1,10.125-1.828,7.8,7.8,0,0,1,3.352,9.812,2.543,2.543,0,0,0,.337,2.926A48.457,48.457,0,0,1,146.4,109.5a48.771,48.771,0,0,1-20.552.675c-1.814-.326-2.526-1.055-2.308-2.347.216-1.274,1.14-1.711,2.976-1.4,13.2,2.21,25.193-.644,35.69-8.941a43.106,43.106,0,0,0,16.592-29.364,43.87,43.87,0,0,0-8.482-32.361c-.146-.2-.308-.386-.522-.652m.3-7.062a4.14,4.14,0,0,0-8.278-.082,4.14,4.14,0,1,0,8.278.082" transform="translate(-86.095 -14.006)" fill="#00ff5c"/>
    <path id="Path_5151" data-name="Path 5151" d="M215.021,13.019a2.071,2.071,0,0,1-1.979,1.893,1.953,1.953,0,0,1-1.867-1.846,2.06,2.06,0,0,1,1.892-1.98,2.13,2.13,0,0,1,1.954,1.933" transform="translate(-147.212 -7.728)" fill="#00ff5c"/>
    <path id="Path_5152" data-name="Path 5152" d="M96.464,298.593a1.884,1.884,0,0,1,3.762-.19,1.95,1.95,0,0,1-1.786,2.025,1.92,1.92,0,0,1-1.976-1.835" transform="translate(-67.247 -206.813)" fill="#00ff5c"/>
    <path id="Path_5153" data-name="Path 5153" d="M139.534,124a15.676,15.676,0,1,1-15.6-15.669A15.78,15.78,0,0,1,139.534,124m-27.511-.086a11.836,11.836,0,1,0,11.883-11.745,11.825,11.825,0,0,0-11.883,11.745" transform="translate(-75.418 -75.523)" fill="#00ff5c"/>
  </g>
</svg>
