<svg xmlns="http://www.w3.org/2000/svg" xmlns:xlink="http://www.w3.org/1999/xlink" width="670" height="309.054" viewBox="0 0 670 309.054">
  <defs>
    <clipPath id="clip-path">
      <rect id="Rectangle_11592" data-name="Rectangle 11592" width="309.054" height="516.789" fill="#00ff5c"/>
    </clipPath>
  </defs>
  <g id="Group_90" data-name="Group 90" transform="translate(1095.499 -8915)" style="mix-blend-mode: normal;isolation: isolate">
    <g id="Group_80" data-name="Group 80" transform="translate(-578.71 8915) rotate(90)">
      <g id="Group_79" data-name="Group 79" transform="translate(0 0)" clip-path="url(#clip-path)">
        <path id="Path_5131" data-name="Path 5131" d="M305.685,398.911a60.141,60.141,0,0,1-56.42,39.983H229.321q0-3.409-.3-6.745h20.248A53.1,53.1,0,0,0,302.309,379.1V19.809A59.353,59.353,0,0,1,305.685,0a59.516,59.516,0,0,1,3.369,19.809V379.1a59.515,59.515,0,0,1-3.369,19.81M79.733,438.894H59.792A59.96,59.96,0,0,1,0,379.1V278.945H6.745V379.1a53.107,53.107,0,0,0,53.047,53.047H80.037q-.3,3.334-.3,6.745" transform="translate(0 0)" fill="#00ff5c"/>
        <path id="Path_5132" data-name="Path 5132" d="M124.059,62.028a62.03,62.03,0,1,0-62.028,62.028,61.9,61.9,0,0,0,62.028-62.028" transform="translate(92.497 376.865)"/>
        <path id="Path_5133" data-name="Path 5133" d="M3.372,77.895q0-3.409.3-6.745A74.914,74.914,0,0,1,71.632,3.389V0A78.18,78.18,0,0,0,.287,71.15C.094,73.379,0,75.632,0,77.895A78.169,78.169,0,0,0,71.632,155.79V152.4A74.892,74.892,0,0,1,3.372,77.895" transform="translate(76.36 360.999)" fill="#00ff5c"/>
        <path id="Path_5134" data-name="Path 5134" d="M71.632,77.895c0-2.263-.094-4.516-.287-6.745A77.569,77.569,0,0,0,48.737,22.622,77.57,77.57,0,0,0,0,0V3.389A74.914,74.914,0,0,1,67.956,71.15q.3,3.334.3,6.745A74.892,74.892,0,0,1,0,152.4v3.389a77.572,77.572,0,0,0,48.737-22.622,77.657,77.657,0,0,0,22.9-55.273" transform="translate(161.061 360.999)" fill="#00ff5c"/>
      </g>
    </g>
    <text id="_Project_Research_Consultation_Metaverse_Prototype_Development_Website_Development_GOGA_Smart_Contract_Development_Blockchain_Development" data-name="✔ Project Research &amp; Consultation
✔ Metaverse Prototype Development
✔ Website Development
✔ GOGA Smart Contract Development
✔ Blockchain Development" transform="translate(-882.499 8979)" fill="#676363" font-size="24" font-family="SegoeUIEmoji, Segoe UI Emoji"><tspan x="0" y="0">✔</tspan><tspan y="0" xml:space="preserve" font-family="MicrosoftJhengHeiBold, Microsoft JhengHei"> Project Research &amp; Consultation</tspan><tspan x="0" y="47">✔</tspan><tspan y="47" xml:space="preserve" font-family="MicrosoftJhengHeiBold, Microsoft JhengHei"> Metaverse Prototype Development</tspan><tspan x="0" y="94">✔</tspan><tspan y="94" xml:space="preserve" font-family="MicrosoftJhengHeiBold, Microsoft JhengHei"> Website Development</tspan><tspan x="0" y="141">✔</tspan><tspan y="141" xml:space="preserve" font-family="MicrosoftJhengHeiBold, Microsoft JhengHei"> GOGA Smart Contract Development</tspan><tspan x="0" y="188">✔</tspan><tspan y="188" xml:space="preserve" font-family="MicrosoftJhengHeiBold, Microsoft JhengHei"> Blockchain Development</tspan></text>
  </g>
</svg>
