<svg id="Group_13594" data-name="Group 13594" xmlns="http://www.w3.org/2000/svg" xmlns:xlink="http://www.w3.org/1999/xlink" width="95.93" height="92.528" viewBox="0 0 95.93 92.528">
  <defs>
    <clipPath id="clip-path">
      <rect id="Rectangle_11613" data-name="Rectangle 11613" width="95.93" height="92.528" fill="#00ff5c"/>
    </clipPath>
  </defs>
  <g id="Group_13593" data-name="Group 13593" clip-path="url(#clip-path)">
    <path id="Path_14035" data-name="Path 14035" d="M60.968,32.753c-2.848,0-5.7.042-8.544-.023-1-.023-1.326.307-1.233,1.271.128,1.329-.543,3.028.277,3.9.768.816,2.461.24,3.745.248,4.8.029,9.594-.008,14.391.03a2.367,2.367,0,0,0,2.042-.929c1.989-2.373,4.08-4.661,6.061-7.041a3.028,3.028,0,0,1,2.847-1.259c.444.049.9-.009,1.348.01,1.787.076,3.312.136,4.411-1.955,1.085-2.065,3.962-2.562,6.138-1.7a5.492,5.492,0,0,1-.714,10.449,5.239,5.239,0,0,1-5.9-2.491,2.453,2.453,0,0,0-2.4-1.43A5.383,5.383,0,0,0,78,34.288c-1.415,1.983-3.225,3.679-4.765,5.58A3.251,3.251,0,0,1,70.4,41.14c-5.846-.047-11.694.032-17.539-.059-1.437-.022-1.741.446-1.687,1.758.1,2.345.106,4.7,0,7.043-.061,1.3.4,1.554,1.606,1.541,5.9-.06,11.793,0,17.689-.047A3.172,3.172,0,0,1,73.179,52.6c1.918,2.3,3.967,4.5,5.873,6.807a2.7,2.7,0,0,0,2.66,1.218,4.457,4.457,0,0,1,1.2,0,2.636,2.636,0,0,0,3.08-1.551,5.092,5.092,0,0,1,6.139-2.157,5.421,5.421,0,0,1,3.793,5.34,5.5,5.5,0,0,1-4.079,5.148A5.31,5.31,0,0,1,85.8,64.88a1.933,1.933,0,0,0-2.3-1.3c-3.442.639-5.89-.69-7.813-3.553-1.161-1.728-2.74-3.171-4.079-4.785a2.216,2.216,0,0,0-1.9-.909q-8.619.056-17.24,0c-.943-.006-1.28.217-1.291,1.231-.045,4.157-.082,4.156,4.041,4.156,4.647,0,9.295.029,13.942-.021a3.045,3.045,0,0,1,2.709,1.21c1.231,1.571,2.528,3.1,3.9,4.551a3.947,3.947,0,0,1,1.181,3.246c-.054.595.029,1.2-.016,1.8-.121,1.592.009,2.788,1.79,3.724,2.169,1.14,2.771,4.049,1.875,6.358a5.538,5.538,0,0,1-5.745,3.431A5.465,5.465,0,0,1,70.143,80,5.3,5.3,0,0,1,72.8,73.77c1.037-.512,1.1-1.156,1.286-2.147.768-4.077-2.385-6.037-4.392-8.624-.291-.375-.731-.257-1.119-.258-5.4-.005-10.794.016-16.19-.022-.9-.006-1.244.21-1.2,1.161.075,1.546.051,3.1.009,4.646-.022.785.272,1.055,1.046,1.032,1.448-.043,2.9.079,4.345-.035a2.713,2.713,0,0,1,3.1,1.748,2.729,2.729,0,0,0,3.136,1.958c2.256-.177,4.372,1.759,4.894,3.908a5.483,5.483,0,0,1-9.14,5.373,5.415,5.415,0,0,1-.962-6.48c1-1.84.029-3.463-2.1-3.431-1.388.021-3.19-.593-4.056.239-.944.907-.258,2.741-.307,4.168-.059,1.7-.014,3.4-.014,5.1a9.807,9.807,0,0,1-7.176,9.8,11.171,11.171,0,0,1-9.765-1.162,2.043,2.043,0,0,0-2.051-.191,11.431,11.431,0,0,1-15.5-8.876c-.177-1-.456-1.454-1.58-1.684A12.58,12.58,0,0,1,6.51,62.181c.437-.893.551-1.286-.525-1.877A11.438,11.438,0,0,1,3.543,41.965a1.4,1.4,0,0,0,.432-1.874,12.537,12.537,0,0,1,6.54-16.642c.983-.437,1.086-.862.9-1.889a12.613,12.613,0,0,1,14.8-14.438c1.2.247,1.607-.13,2.188-1.04A12.226,12.226,0,0,1,40.3.046,12.2,12.2,0,0,1,50.514,6.9a5.623,5.623,0,0,1,.7,2.861c-.05,2.947.021,5.9-.038,8.844-.021,1.012.221,1.467,1.315,1.376a19.087,19.087,0,0,1,3.145,0,2.024,2.024,0,0,0,2.054-1.114,1.711,1.711,0,0,0,.025-2.223A5.188,5.188,0,0,1,58.6,10.07a5.432,5.432,0,0,1,6.755-.694A5.526,5.526,0,0,1,67.622,15.8a5.4,5.4,0,0,1-5.58,3.651,1.521,1.521,0,0,0-1.915,1.071,3.6,3.6,0,0,1-4.253,2.393c-1.178-.157-2.4,0-3.594-.037-.718-.022-1.117.125-1.092.973.05,1.7.034,3.4.006,5.1-.01.652.248.871.882.869q8.395-.02,16.79,0a1.509,1.509,0,0,0,1.25-.679,12.151,12.151,0,0,1,1.464-1.7A7.286,7.286,0,0,0,74.067,20.5a1.716,1.716,0,0,0-1.061-1.67A5.376,5.376,0,0,1,70.219,12.5a5.642,5.642,0,0,1,5.4-3.976,5.575,5.575,0,0,1,5.21,4.58,5.319,5.319,0,0,1-2.909,5.727c-.759.382-1.1.79-.96,1.585.636,3.718-.911,6.47-3.334,9.233-1.994,2.273-3.913,3.536-6.972,3.145a45.181,45.181,0,0,0-5.691-.044M48.224,66.784q0-7.945,0-15.891c0-2.143-.651-2.882-2.8-3.181a4.93,4.93,0,0,0-3.19.544c-.92.522-1.788.56-2.309-.435-.574-1.1.1-1.761,1.063-2.233a7.937,7.937,0,0,1,6.111-.473c.83.267,1.151.3,1.142-.712q-.054-5.921,0-11.843a1.485,1.485,0,0,0-.829-1.444,5.244,5.244,0,0,0-5.547-.012c-.874.5-1.708.459-2.179-.464a1.506,1.506,0,0,1,.815-2.119,7.689,7.689,0,0,1,6.35-.787c1.152.372,1.406.254,1.4-.987-.016-5.546.061-11.092.119-16.638a3.848,3.848,0,0,0-.364-1.886,9.342,9.342,0,0,0-8.23-5.386,9.459,9.459,0,0,0-8.637,4.451c-.46.673-.472.986.338,1.446a9.107,9.107,0,0,1,4.571,9.758c-.179,1.1-.549,2.09-1.814,1.88s-1.286-1.238-1.127-2.357a6.179,6.179,0,0,0-4.827-7.323c-.337-.091-.676-.174-1.01-.276-3.851-1.173-7.349-.6-10.215,2.33A9.394,9.394,0,0,0,14.87,22.981c.826,2.451,2.246,3.208,4.828,2.6.918-.217,1.762-.131,2.059.914.31,1.091-.318,1.679-1.311,1.976a6.187,6.187,0,0,1-6.916-1.9,1.477,1.477,0,0,0-2.054-.394A9.784,9.784,0,0,0,6.282,38.458c.305.811.649,1.14,1.637.864a7.848,7.848,0,0,1,8.4,2.5c.743.811,1.409,1.771.337,2.722-1.053.934-1.772.082-2.472-.712A5.27,5.27,0,0,0,7.668,42.5,8.62,8.62,0,0,0,9.216,58.487c2.115.6,2.352,1.37,1.043,3.159A9.451,9.451,0,0,0,9.224,71.94a8.647,8.647,0,0,0,7.906,5.327c2.958,0,5.89-1.108,7.463-4.129.377-.724.895-1.244,1.778-.942A1.432,1.432,0,0,1,27.3,74a4.646,4.646,0,0,1-1.327,2.464,11.07,11.07,0,0,1-5.094,3.021c-1.486.425-1.648,1.165-1.286,2.511a8.536,8.536,0,0,0,12.884,5.05c2.875-1.786,3.753-4.2,2.5-7.109-.438-1.016-.51-1.921.614-2.378s1.738.3,2.124,1.29a8.031,8.031,0,0,1-1.26,8.692c-.677.792-.377,1.017.356,1.336A8.993,8.993,0,0,0,42.1,89.4a7.331,7.331,0,0,0,6.125-7.327V66.784M65,13.9a2.573,2.573,0,0,0-2.654-2.448,2.453,2.453,0,0,0-2.48,2.579,2.541,2.541,0,0,0,2.609,2.489A2.656,2.656,0,0,0,65,13.9m10.44,67.136A2.465,2.465,0,0,0,78,78.526a2.549,2.549,0,0,0-2.548-2.559,2.67,2.67,0,0,0-2.6,2.558,2.567,2.567,0,0,0,2.592,2.515M90.427,64.615a2.47,2.47,0,0,0,2.524-2.545,2.608,2.608,0,0,0-2.567-2.561,2.71,2.71,0,0,0-2.559,2.605,2.541,2.541,0,0,0,2.6,2.5M62.322,81.037A2.563,2.563,0,0,0,65,78.621a2.666,2.666,0,0,0-2.492-2.654,2.556,2.556,0,0,0-2.637,2.468,2.435,2.435,0,0,0,2.447,2.6M75.444,11.444a2.55,2.55,0,0,0-2.553,2.542,2.66,2.66,0,0,0,2.621,2.529A2.578,2.578,0,0,0,78.03,13.92a2.469,2.469,0,0,0-2.586-2.476m17.537,18.9A2.471,2.471,0,0,0,90.4,27.866a2.577,2.577,0,0,0-2.546,2.569,2.725,2.725,0,0,0,2.63,2.536,2.6,2.6,0,0,0,2.5-2.624" transform="translate(0 0)" fill="#00ff5c"/>
    <path id="Path_14036" data-name="Path 14036" d="M108.074,184.959a8.26,8.26,0,0,1-8.053-7.354,1.49,1.49,0,1,1,2.923-.574c1.039,3.9,2.126,4.813,6.033,5.015.929.048,1.6.446,1.633,1.378a1.436,1.436,0,0,1-1.492,1.53c-.346.029-.7,0-1.044,0" transform="translate(-70.016 -123.083)" fill="#00ff5c"/>
    <path id="Path_14037" data-name="Path 14037" d="M84.694,117.647a1.479,1.479,0,0,1-1.014,1.517,1.433,1.433,0,0,1-1.67-.681,5.369,5.369,0,0,0-5.067-2.246,5.553,5.553,0,0,0-2.1.7,1.459,1.459,0,0,1-1.413-2.554c3.356-2.244,8.98-1,10.959,2.461a4.621,4.621,0,0,1,.31.8" transform="translate(-50.858 -79.295)" fill="#00ff5c"/>
    <path id="Path_14038" data-name="Path 14038" d="M62.132,178.528a5.337,5.337,0,0,0,3.65,5.435c1.046.384,1.878.886,1.446,2.133-.459,1.327-1.5,1.018-2.481.664a8.251,8.251,0,0,1-5.539-8.022c.069-1.041.111-2.276,1.6-2.2,1.363.066,1.478,1.1,1.319,1.994" transform="translate(-41.444 -123.599)" fill="#00ff5c"/>
  </g>
</svg>
