<svg id="Group_13596" data-name="Group 13596" xmlns="http://www.w3.org/2000/svg" xmlns:xlink="http://www.w3.org/1999/xlink" width="92.497" height="92.528" viewBox="0 0 92.497 92.528">
  <defs>
    <clipPath id="clip-path">
      <rect id="Rectangle_11614" data-name="Rectangle 11614" width="92.497" height="92.528" fill="#00ff5c"/>
    </clipPath>
  </defs>
  <g id="Group_13595" data-name="Group 13595" clip-path="url(#clip-path)">
    <path id="Path_14039" data-name="Path 14039" d="M92.5,46.229A45.763,45.763,0,0,1,84.218,72.6a1.444,1.444,0,0,0-.074,1.881A8.343,8.343,0,0,1,72.337,85.8a1.638,1.638,0,0,0-2.143.015,45.481,45.481,0,0,1-29.758,6.35,46.143,46.143,0,0,1-39.3-35.828A45.42,45.42,0,0,1,8.271,19.919a1.454,1.454,0,0,0,.07-1.881A8.206,8.206,0,0,1,9.674,7.511a8.188,8.188,0,0,1,10.474-.785,1.636,1.636,0,0,0,2.142-.013A45.67,45.67,0,0,1,52.049.356,46.262,46.262,0,0,1,91.367,36.182,51.793,51.793,0,0,1,92.5,46.229M43.578,33.271c-3.32,0-6.641.027-9.961-.018-.865-.012-1.18.262-1.227,1.126-.1,1.774-.334,3.54-.44,5.314a99.321,99.321,0,0,0,.041,13.7A1.264,1.264,0,0,0,33,54.708a7.94,7.94,0,0,1,4.707,4.212c.265.545.459.972,1.213.969q10.033-.042,20.067,0c.667,0,.939-.231,1.016-.879a109.318,109.318,0,0,0,.552-19.3c-.045-.772-.446-1.047-1.1-1.277a7.809,7.809,0,0,1-4.675-4.242,1.382,1.382,0,0,0-1.531-.928c-3.224.033-6.448.014-9.673.014m31.473,26.6c2.887,0,5.775-.007,8.662.005.62,0,1.053-.06,1.29-.8a41.2,41.2,0,0,0,.249-24.834,1.142,1.142,0,0,0-1.289-.99q-6.352.061-12.7,0a1.28,1.28,0,0,0-1.379.915,6.708,6.708,0,0,1-2.891,3.319A1.9,1.9,0,0,0,65.949,39.7a93.821,93.821,0,0,1-.511,19.152c-.11.947.189,1.036.95,1.03,2.887-.025,5.775-.01,8.662-.01m-57.7-26.6c-2.839,0-5.681.055-8.518-.029A1.434,1.434,0,0,0,7.153,34.5a41.231,41.231,0,0,0,.241,24.286A1.306,1.306,0,0,0,8.9,59.892c4.091-.04,8.182-.032,12.273,0a1.279,1.279,0,0,0,1.417-.867,7.179,7.179,0,0,1,3.11-3.5,1.542,1.542,0,0,0,.894-1.727,99.657,99.657,0,0,1,.341-19.453c.1-1.009-.242-1.093-1.061-1.083-2.839.037-5.679.014-8.519.014m26.6-5.481q4.689,0,9.378,0c.587,0,1.084.021,1.372-.714a7.163,7.163,0,0,1,2.705-3.3c.607-.414.6-.821.425-1.454a52.9,52.9,0,0,0-2.388-6.934C54.095,12.3,52.557,9.3,49.93,7.054c-2.484-2.127-4.892-2.108-7.389,0a17.108,17.108,0,0,0-3.725,4.735c-2.642,4.641-4.045,9.722-5.243,14.876-.213.917.1,1.155,1.005,1.141,3.126-.048,6.252-.018,9.378-.018m4.591,37.525c-2.889,0-5.779.046-8.666-.023-1.16-.027-1.978.108-2.435,1.385a5.781,5.781,0,0,1-2.231,2.6,1.052,1.052,0,0,0-.455,1.34,41.294,41.294,0,0,0,4.914,11.478,18.537,18.537,0,0,0,2.057,2.6c3.027,3.142,5.916,3.146,8.976.073a16.055,16.055,0,0,0,2.145-2.711c3.047-4.773,4.637-10.09,5.89-15.549.241-1.052.006-1.214-.949-1.2-3.081.041-6.163.015-9.244.015m8.8-58.2a53.97,53.97,0,0,1,5.883,14.366,1.057,1.057,0,0,0,.919.893A8.1,8.1,0,0,1,69.9,27a1.3,1.3,0,0,0,1.462.8c2.84-.021,5.681-.009,8.521-.009h2.79C76.932,17.267,68.639,10.408,57.35,7.118M35.43,85.6a47.209,47.209,0,0,1-5.925-13.759,1.323,1.323,0,0,0-1.148-1.075A8.1,8.1,0,0,1,22.6,66.178a1.316,1.316,0,0,0-1.411-.878c-3.22.033-6.442.057-9.661-.006-1.286-.025-1.2.373-.676,1.272A41.174,41.174,0,0,0,20.634,78a40.474,40.474,0,0,0,14.8,7.6M35.4,6.933a41.5,41.5,0,0,0-10.955,4.839,1.19,1.19,0,0,0-.663,1.278,8.392,8.392,0,0,1-9.31,8.922c-.41-.04-.863-.2-1.186.262a32.806,32.806,0,0,0-3.345,5.549c5.9,0,11.614,0,17.325,0,.57,0,.7-.34.789-.817,1.3-6.98,3.342-13.7,7.344-20.037m21.675,78.66A42.759,42.759,0,0,0,67.674,81a1.886,1.886,0,0,0,1.04-1.945c-.1-4.564,3.473-8.572,7.835-8.43a3.925,3.925,0,0,0,4.113-2.451c.328-.64.718-1.249,1.1-1.856.409-.644.471-1.017-.509-1.013q-7.934.033-15.869,0c-.622,0-.915.144-1.052.823-1.355,6.76-3.319,13.3-7.266,19.465M33.125,62.519a2.962,2.962,0,1,0-2.97,3.065,3.047,3.047,0,0,0,2.97-3.065M62.36,27.608a2.956,2.956,0,0,0-.148,5.91,2.956,2.956,0,1,0,.148-5.91m-47-11.046a3.05,3.05,0,0,0,3.064-2.85A3,3,0,0,0,15.552,10.7a2.937,2.937,0,0,0-3.116,2.9,3,3,0,0,0,2.929,2.964M77.028,81.828a2.949,2.949,0,0,0,3.023-2.854,3,3,0,0,0-3.024-3.015A3.051,3.051,0,0,0,74.057,78.9a3,3,0,0,0,2.97,2.923" transform="translate(0 0)" fill="#00ff5c"/>
  </g>
</svg>
