<svg id="Group_1158" data-name="Group 1158" xmlns="http://www.w3.org/2000/svg" xmlns:xlink="http://www.w3.org/1999/xlink" width="77.475" height="108.858" viewBox="0 0 77.475 108.858">
  <defs>
    <clipPath id="clip-path">
      <rect id="Rectangle_11599" data-name="Rectangle 11599" width="77.475" height="108.858" fill="#00ff5c"/>
    </clipPath>
  </defs>
  <g id="Group_1157" data-name="Group 1157" clip-path="url(#clip-path)">
    <path id="Path_5161" data-name="Path 5161" d="M52.486,93.205c0-8.671-.121-17.345.066-26.013.065-3.021-.55-4.761-3.5-6.394C40.219,55.921,36.524,45.52,39.53,35.725A21.7,21.7,0,1,1,69.348,61.989a2.39,2.39,0,0,0-1.622,2.653c.109,3.111.034,6.229.034,9.5a32.072,32.072,0,0,0,16.312-9.364,32.88,32.88,0,0,0,3.957-39.624c-.6-.959-1.07-1.445-2.393-1.022a7.864,7.864,0,0,1-9.243-3.884A8.085,8.085,0,0,1,88.087,9.746,7.918,7.918,0,0,1,90.9,19.513a2.507,2.507,0,0,0,.282,2.747A36.944,36.944,0,0,1,76.9,75.333c-.44.224-.974.313-1.276.806.445.747.861.959,1.725.361,4.312-2.983,9.011-1.9,11.518,2.611.333.6.484.912,1.365.628,5.594-1.8,10.405,1.669,10.448,7.553.059,8.05.023,16.1.009,24.153,0,1.816-.848,2.879-2.188,2.882-1.359,0-2.174-1.039-2.176-2.863q-.013-11.992-.006-23.983c0-2.519-1.283-4.063-3.33-4.047-2.005.015-3.343,1.615-3.373,4.089-.026,2.1-.018,4.2-.011,6.293,0,1.435-.68,2.331-2.121,2.294-1.42-.037-2.07-.944-2.061-2.377.022-3.572.015-7.144,0-10.716-.009-2.273-1.406-3.923-3.323-3.97-1.976-.048-3.414,1.628-3.423,4.032-.013,3.4,0,6.8-.008,10.205-.007,1.814-.694,2.675-2.088,2.687-1.413.013-2.1-.81-2.108-2.666-.023-3.458.035-6.918-.023-10.375C74.4,80,72.091,78.3,69.728,79.4a3.286,3.286,0,0,0-1.975,3.279c.024,3.232.015,6.463,0,9.7-.007,1.818-.822,2.894-2.153,2.9S63.42,94.2,63.418,92.388q-.018-19.305-.012-38.611a5.191,5.191,0,0,0-.224-2.346,3.2,3.2,0,0,0-3.409-2.018,3.12,3.12,0,0,0-2.905,2.662,10.487,10.487,0,0,0-.085,2.034q-.006,22.792,0,45.585c0,.454,0,.907,0,1.361a2.257,2.257,0,0,1-1.6,2.5c-1.275.367-2.028-.348-2.629-1.331-2.038-3.334-4.081-6.664-6.1-10.007a3.659,3.659,0,0,0-2.572-2.021,3.476,3.476,0,0,0-3.634,1.294,3.634,3.634,0,0,0-.282,4.006q3.617,7.3,7.226,14.6c.226.457.457.912.65,1.383a2.106,2.106,0,0,1-3.487,2.184,3.713,3.713,0,0,1-.658-.982c-2.584-5.224-5.236-10.416-7.709-15.692a7.875,7.875,0,0,1,7.6-11.214,7.679,7.679,0,0,1,6.267,3.833c.771,1.232,1.533,2.47,2.3,3.706l.339-.109M52.38,57.838c.046-.353.09-.567.1-.784.094-2.146-.331-4.348.35-6.421a2.515,2.515,0,0,0-.474-2.591,9.109,9.109,0,0,1-1.1-9.472,9.243,9.243,0,0,1,8.587-5.9,9.126,9.126,0,0,1,8.994,5.256,9.43,9.43,0,0,1-.934,10.4c-.335.467-1.047.789-.725,1.58.862,2.123.5,4.357.586,6.551.017.433-.222,1.019.176,1.267.509.316.93-.241,1.339-.486A17.426,17.426,0,0,0,59.263,24.931,17.363,17.363,0,0,0,42.832,41.712,16.939,16.939,0,0,0,52.38,57.838M54.8,42.748a6.944,6.944,0,0,0,.162,1.2c.491,1.795,1.032,2.072,2.8,1.532a7.039,7.039,0,0,1,5.133.19c1.23.578,1.715.135,2.2-.879a5.452,5.452,0,1,0-10.3-2.043M87.267,16.391a3.719,3.719,0,0,0-3.73-3.79,3.788,3.788,0,0,0-3.839,3.88,3.74,3.74,0,0,0,3.846,3.691,3.665,3.665,0,0,0,3.723-3.781" transform="translate(-23.239 -5.496)" fill="#00ff5c"/>
    <path id="Path_5162" data-name="Path 5162" d="M5.619,62.555a4.163,4.163,0,0,1,.493-2.445c.926-1.416.333-2.419-.44-3.65A36.9,36.9,0,0,1,29.781.653C31.166.378,32.57.181,33.974.033c1.862-.2,2.93.5,3.054,1.878s-.8,2.235-2.666,2.387a32.27,32.27,0,0,0-18.654,7.753A32.794,32.794,0,0,0,9.2,54.137c.574.909,1.05,1.357,2.261.976a7.769,7.769,0,0,1,8.909,3.2A8.071,8.071,0,1,1,5.619,62.555m8.043-3.513a3.791,3.791,0,1,0,3.834,3.72,3.8,3.8,0,0,0-3.834-3.72" transform="translate(0 0)" fill="#00ff5c"/>
    <path id="Path_5163" data-name="Path 5163" d="M124.7,4.62a2.124,2.124,0,0,1,2.113-2.413,1.95,1.95,0,0,1,2.031,2.054,1.99,1.99,0,0,1-2.1,2.151A1.953,1.953,0,0,1,124.7,4.62" transform="translate(-82.275 -1.454)" fill="#00ff5c"/>
  </g>
</svg>
