<svg id="Group_13592" data-name="Group 13592" xmlns="http://www.w3.org/2000/svg" xmlns:xlink="http://www.w3.org/1999/xlink" width="95.53" height="95.573" viewBox="0 0 95.53 95.573">
  <defs>
    <clipPath id="clip-path">
      <rect id="Rectangle_11612" data-name="Rectangle 11612" width="95.53" height="95.573" fill="#00ff5c"/>
    </clipPath>
  </defs>
  <g id="Group_13591" data-name="Group 13591" clip-path="url(#clip-path)">
    <path id="Path_14028" data-name="Path 14028" d="M117.873,42.766a29.668,29.668,0,0,1-9.8,22.373,20.188,20.188,0,0,0-6.042,9.734c-.294,1.093-.491,1.9.928,2.375a2.318,2.318,0,0,1,1.382,2.57,2.271,2.271,0,0,1-1.69,2.367c-1.25.251-1.284.961-1.241,1.92a15.426,15.426,0,0,1-2.77,10.147,14.532,14.532,0,0,1-7.885,5.573c-.791.228-1.381.435-1.483,1.494a2.729,2.729,0,0,1-5.321-.077A1.4,1.4,0,0,0,82.7,99.883,14.7,14.7,0,0,1,71.847,85.071c.042-1.344.245-2.515-1.67-3.151s-1.76-3.882.157-4.675c1.322-.546,1.189-1.259.917-2.267a19.322,19.322,0,0,0-5.785-9.554,29.152,29.152,0,0,1-9.811-18.254c-2.113-16.047,8.149-31.616,23.6-35.135,19.238-4.381,35.279,8.4,38.154,25.664.3,1.779.3,3.562.462,5.067M86.6,76.828c2.737,0,5.474-.017,8.211.011.731.007,1.216-.093,1.343-.966A25.087,25.087,0,0,1,104.477,60.8a24.662,24.662,0,0,0,7.459-13.956c.2-1.065.138-1.69-1.238-1.593a21.106,21.106,0,0,1-4.917-.016c-4.444-.744-7.745.874-10.374,4.377-.533.71-.845,1.2-.466,2.078a7.57,7.57,0,0,1,.264,4.7,8.806,8.806,0,1,1-17.1-4.208,8.858,8.858,0,0,1,11.44-5.982,1.459,1.459,0,0,0,1.812-.411c1.413-1.47,2.954-2.823,4.3-4.351a5.174,5.174,0,0,1,4.356-1.779c3.581.077,7.166-.01,10.748.043,1.058.016,1.419-.268,1.2-1.353a30.262,30.262,0,0,0-2.487-7.619c-5.043-10.067-16.147-15.406-27.654-13.3A24.9,24.9,0,0,0,61.263,38.462c-.132.907.065,1.261,1.037,1.229a29.142,29.142,0,0,1,5.367.029c4.26.66,7.463-.787,10.02-4.184a2.294,2.294,0,0,0,.562-2.46c-1.86-5.5,2.706-11.688,8.468-11.41a8.472,8.472,0,0,1,8,5.493,8.2,8.2,0,0,1-1.663,9.272,8.45,8.45,0,0,1-9.406,2.32,1.457,1.457,0,0,0-1.794.459c-1.557,1.609-3.179,3.153-4.725,4.772a4.047,4.047,0,0,1-3.186,1.307c-3.831-.045-7.664.02-11.495-.038-1.105-.017-1.363.342-1.186,1.381a23.106,23.106,0,0,0,5.118,11.413c1.453,1.7,2.972,3.348,4.489,4.993a22.644,22.644,0,0,1,6.181,12.643c.125.972.592,1.181,1.483,1.165,2.686-.049,5.374-.018,8.061-.018m0,5.639h-6.1c-3.233,0-3.233,0-3.077,3.27a8.977,8.977,0,0,0,7.095,8.786,9.128,9.128,0,0,0,10.079-4.282,13.013,13.013,0,0,0,1.265-6.635c-.006-.948-.351-1.167-1.219-1.153-2.679.042-5.359.015-8.039.015m.082-31.144a3.134,3.134,0,0,0-3.246,3.143A3.273,3.273,0,0,0,86.644,57.7a3.355,3.355,0,0,0,3.189-3.12,3.208,3.208,0,0,0-3.155-3.252m-.124-17.7a3.113,3.113,0,0,0,3.261-3.145,3.2,3.2,0,0,0-3.133-3.169A3.271,3.271,0,0,0,83.4,30.5a3.183,3.183,0,0,0,3.151,3.125" transform="translate(-38.844 -7.833)" fill="#00ff5c"/>
    <path id="Path_14029" data-name="Path 14029" d="M46.939,211.258a3.07,3.07,0,0,1-2.568-1.577,2.561,2.561,0,0,1,.336-3.047,40.331,40.331,0,0,1,3.574-3.556,2.5,2.5,0,0,1,3.405-.058c1.089.847,1.611,2.073.872,3.27a14.966,14.966,0,0,1-4.667,4.668,3.642,3.642,0,0,1-.953.3" transform="translate(-30.877 -141.951)" fill="#00ff5c"/>
    <path id="Path_14030" data-name="Path 14030" d="M255.3,208.05a3.091,3.091,0,0,1-1.551,2.846,2.539,2.539,0,0,1-3.054-.327,44.569,44.569,0,0,1-3.576-3.59,2.653,2.653,0,0,1,.053-3.547,2.571,2.571,0,0,1,3.366-.632,20.655,20.655,0,0,1,4.327,4.271,2.105,2.105,0,0,1,.434.978" transform="translate(-172.875 -141.974)" fill="#00ff5c"/>
    <path id="Path_14031" data-name="Path 14031" d="M50.128,8.868c-1.776.023-6.06-4.212-6-5.973A2.675,2.675,0,0,1,45.741.413,2.531,2.531,0,0,1,48.669.78c1.251,1.132,2.453,2.328,3.586,3.578a2.482,2.482,0,0,1,.365,2.921,2.646,2.646,0,0,1-2.492,1.589" transform="translate(-30.948 -0.078)" fill="#00ff5c"/>
    <path id="Path_14032" data-name="Path 14032" d="M249.325,8.769a2.5,2.5,0,0,1-2.463-1.354,2.568,2.568,0,0,1,.129-2.958A21.791,21.791,0,0,1,251.01.5a2.508,2.508,0,0,1,3.395.4,2.505,2.505,0,0,1,.4,3.385,24.663,24.663,0,0,1-4.075,4.113,2.077,2.077,0,0,1-1.408.379" transform="translate(-172.868 0)" fill="#00ff5c"/>
    <path id="Path_14033" data-name="Path 14033" d="M4.956,112.08c-.795,0-1.594.056-2.383-.012A2.763,2.763,0,0,1,0,109.44a2.679,2.679,0,0,1,2.331-2.821,21.038,21.038,0,0,1,5.5.015,2.679,2.679,0,0,1,2.292,2.711,2.732,2.732,0,0,1-2.487,2.705c-.886.086-1.786.016-2.68.016v.015" transform="translate(0 -74.662)" fill="#00ff5c"/>
    <path id="Path_14034" data-name="Path 14034" d="M291.02,112.08c-.795,0-1.594.056-2.383-.012a2.846,2.846,0,0,1-2.6-2.624,2.782,2.782,0,0,1,2.365-2.821,21.05,21.05,0,0,1,5.5.009,2.592,2.592,0,0,1,2.259,2.711,2.662,2.662,0,0,1-2.452,2.71c-.886.085-1.786.016-2.68.016v.013" transform="translate(-200.623 -74.662)" fill="#00ff5c"/>
  </g>
</svg>
