<svg id="Group_1167" data-name="Group 1167" xmlns="http://www.w3.org/2000/svg" xmlns:xlink="http://www.w3.org/1999/xlink" width="117.015" height="81.898" viewBox="0 0 117.015 81.898">
  <defs>
    <clipPath id="clip-path">
      <rect id="Rectangle_11603" data-name="Rectangle 11603" width="117.015" height="81.898" fill="#00ff5c"/>
    </clipPath>
  </defs>
  <g id="Group_1166" data-name="Group 1166" clip-path="url(#clip-path)">
    <path id="Path_5178" data-name="Path 5178" d="M58.583,73.765c-9.2-.057-16.834,3.539-23.163,10.066a37.828,37.828,0,0,1-9.231,7.521c-11.1,5.892-22.177.866-25.067-11.37A52.244,52.244,0,0,1,.672,60.735,79.791,79.791,0,0,1,9.164,33.367c2.717-5.052,6.207-9.319,11.542-11.926a18.717,18.717,0,0,1,16.982-.192c3.714,1.727,7.18,3.988,11.238,4.974C58.138,28.461,67,27.78,75.419,23.215c2.955-1.6,5.933-3.16,9.3-3.673,7.421-1.132,13.442,1.779,18.344,7.009,4.852,5.177,7.428,11.7,9.646,18.325a85.488,85.488,0,0,1,4.234,22.678,38.425,38.425,0,0,1-1.6,14.069c-3.611,11.083-13.639,15.231-24.056,9.982a33.1,33.1,0,0,1-9.062-7.114c-4.664-4.932-10.1-8.586-16.866-10.011a34.316,34.316,0,0,0-6.777-.715m-28.677-34.5c-4.479,0-4.479,0-4.479,4.349,0,4.289,0,4.289-4.377,4.289-4.219,0-4.219,0-4.219,4.3,0,4.239,0,4.239,4.267,4.239,4.329,0,4.329,0,4.329,4.334,0,4.375,0,4.375,4.45,4.375,4.244,0,4.244,0,4.244-4.233,0-4.476,0-4.476,4.4-4.476,4.292,0,4.292,0,4.292-4.209,0-4.325,0-4.325-4.375-4.325-4.316,0-4.316,0-4.316-4.374,0-4.264,0-4.264-4.214-4.264m70.214,12.885a4.436,4.436,0,0,0-4.349-4.388,4.516,4.516,0,0,0-4.427,4.354,4.4,4.4,0,0,0,4.488,4.425,4.3,4.3,0,0,0,4.288-4.391m-9.886,9.977a4.384,4.384,0,0,0-8.767-.044,4.384,4.384,0,1,0,8.767.044m-8.768-19.8a4.379,4.379,0,0,0,4.381,4.331,4.383,4.383,0,1,0-.111-8.764,4.368,4.368,0,0,0-4.27,4.433m-1.18,9.92a4.41,4.41,0,0,0-4.4-4.48A4.549,4.549,0,0,0,71.5,52.122a4.417,4.417,0,0,0,4.453,4.415,4.289,4.289,0,0,0,4.334-4.291" transform="translate(0 -11.963)" fill="#00ff5c"/>
    <path id="Path_5179" data-name="Path 5179" d="M209.6.206a20.125,20.125,0,0,1,9.167,1.916,4.809,4.809,0,0,1,2.865,4.339c.028,1.072-.2,1.366-1.259.812A21.494,21.494,0,0,0,209.862,4.6a24.978,24.978,0,0,0-10.489,2.868c-1.26.615-1.663.667-1.678-.953a4.577,4.577,0,0,1,2.748-4.365A19.843,19.843,0,0,1,209.6.206" transform="translate(-122.543 -0.128)" fill="#00ff5c"/>
    <path id="Path_5180" data-name="Path 5180" d="M70.669,7.943A53.55,53.55,0,0,0,64.026,5.27,20.576,20.576,0,0,0,48.609,6.928c-.428.217-.893.752-1.351.461-.539-.342-.266-1.038-.222-1.571a4.511,4.511,0,0,1,2.942-3.873,21.778,21.778,0,0,1,17.8-.084c2.831,1.206,3.41,2.708,2.888,6.083" transform="translate(-29.088 0)" fill="#00ff5c"/>
  </g>
</svg>
