<svg id="Group_1174" data-name="Group 1174" xmlns="http://www.w3.org/2000/svg" xmlns:xlink="http://www.w3.org/1999/xlink" width="79.024" height="79.035" viewBox="0 0 79.024 79.035">
  <defs>
    <clipPath id="clip-path">
      <rect id="Rectangle_11606" data-name="Rectangle 11606" width="79.024" height="79.035" fill="#fff"/>
    </clipPath>
  </defs>
  <g id="Group_1173" data-name="Group 1173" clip-path="url(#clip-path)">
    <path id="Path_5187" data-name="Path 5187" d="M0,30.052Q0,18.82,0,7.588C.006,2.851,2.858.014,7.614.01c5.266,0,10.533.015,15.8-.009a7.575,7.575,0,0,1,5.015,1.718c1.561,1.274,3.165,2.5,4.709,3.79A2.9,2.9,0,0,0,35.15,6.2q18.021-.029,36.042-.013c5.078,0,7.832,2.762,7.832,7.853q0,19.132,0,38.263c0,5.143-2.79,7.952-7.9,7.953-7.817,0-15.635.023-23.452-.026-1.058-.006-1.355.3-1.258,1.307a15.92,15.92,0,0,1,0,2.712c-.06.794.255.978.988.951,1.4-.051,2.8-.024,4.2-.012a2.239,2.239,0,0,1,2.54,2.46c.054,2.115.054,2.115,2.2,2.115H75.591c.411,0,.825-.016,1.233.024a2.315,2.315,0,0,1,2.191,2.373,2.229,2.229,0,0,1-2.344,2.187c-3.7.021-7.406.008-11.108.009-3.25,0-6.5-.008-9.751,0-1.887.007-1.644-.23-1.671,1.614,0,.206,0,.412,0,.617a2.228,2.228,0,0,1-2.36,2.429q-12.281.036-24.562,0a2.228,2.228,0,0,1-2.329-2.458c-.063-2.2-.063-2.2-2.321-2.2q-9.874,0-19.749,0c-1.761,0-2.778-.813-2.809-2.225-.032-1.437,1.053-2.361,2.839-2.364,6.912-.009,13.824-.023,20.736.016,1,.006,1.461-.253,1.311-1.3a5.665,5.665,0,0,1,0-1.109,2.141,2.141,0,0,1,2.191-2.176c1.521-.036,3.046-.053,4.566.006.779.03,1-.234.958-.981-.076-1.265.4-2.92-.229-3.7-.666-.82-2.387-.251-3.644-.255-6.994-.025-13.989-.009-20.983-.013C2.887,60.248,0,57.37,0,52.516Q0,41.284,0,30.052M39.412,55.566q15.982,0,31.963,0c2.237,0,2.962-.722,2.962-2.942q0-19.375,0-38.751c0-2.362-.636-3-2.979-3q-18.635,0-37.27.014a4.3,4.3,0,0,1-2.937-1.021c-1.671-1.4-3.417-2.706-5.082-4.111a4.327,4.327,0,0,0-3.027-1.079c-5.1.055-10.2.023-15.3.024-2.442,0-3.052.61-3.052,3.053q0,22.337,0,44.675c0,2.483.656,3.143,3.131,3.143H39.412m.1,18.779H46.17c3.538,0,3.517,0,3.423-3.574-.019-.736-.225-1.029-.984-1.007-1.4.041-2.794.032-4.191,0a2.4,2.4,0,0,1-2.627-2.6c-.033-1.15.013-2.3-.013-3.451-.026-1.1.462-2.541-.186-3.217-.714-.745-2.181-.136-3.311-.255-.782-.082-1.094.171-1.055,1.007.064,1.394.017,2.793.017,4.191,0,4-.336,4.332-4.361,4.332-3.484,0-3.442,0-3.459,3.463,0,.988.353,1.138,1.215,1.125,2.958-.046,5.917-.018,8.876-.018" transform="translate(0 0)" fill="#fff"/>
    <path id="Path_5188" data-name="Path 5188" d="M129.561,88.209c.574-.178.805-.661,1.2-.939a2.466,2.466,0,0,1,3.061.234,2.236,2.236,0,0,1,.183,2.941q-2.695,2.878-5.576,5.578a2.05,2.05,0,0,1-2.919-.136c-1.783-1.7-3.534-3.445-5.234-5.23a2.257,2.257,0,0,1,.113-3.218,2.383,2.383,0,0,1,3.148-.017c.372.312.719.653,1.342,1.224a10.012,10.012,0,1,0-12.838,11.875c.974.32,1.864.705,2.11,1.832.427,1.949-1.121,3.3-3.178,2.7a13.753,13.753,0,0,1-7.174-4.77,14.112,14.112,0,0,1-2.28-14.606,13.932,13.932,0,0,1,11.591-9.158,14.563,14.563,0,0,1,16.251,10.871c.067.262.128.527.2.815" transform="translate(-75.63 -57.507)" fill="#fff"/>
  </g>
</svg>
