<svg xmlns="http://www.w3.org/2000/svg" xmlns:xlink="http://www.w3.org/1999/xlink" width="21.362" height="33.188" viewBox="0 0 21.362 33.188">
  <defs>
    <clipPath id="clip-path">
      <rect id="Rectangle_668" data-name="Rectangle 668" width="21.362" height="33.188" fill="#676363"/>
    </clipPath>
  </defs>
  <g id="Group_97" data-name="Group 97" transform="translate(21.362 33.188) rotate(180)">
    <g id="Group_1144" data-name="Group 1144" clip-path="url(#clip-path)">
      <path id="Path_163" data-name="Path 163" d="M21.361,16.523a2.631,2.631,0,0,1-1.12,2.1q-6.355,5.418-12.7,10.851c-1.142.976-2.279,1.958-3.425,2.929-1.246,1.057-2.58,1.04-3.526-.033a2.4,2.4,0,0,1,.484-3.565c4.52-3.871,9.029-7.755,13.576-11.593.675-.57.576-.825-.03-1.339-4.538-3.849-9.048-7.731-13.565-11.6a2.308,2.308,0,0,1-.874-2.43A2.291,2.291,0,0,1,2.045.054,2.394,2.394,0,0,1,4.213.773q5.906,5.06,11.818,10.113c1.455,1.245,2.9,2.5,4.363,3.738a2.47,2.47,0,0,1,.968,1.9" transform="translate(0 0)" fill="#676363"/>
    </g>
  </g>
</svg>
