<svg xmlns="http://www.w3.org/2000/svg" xmlns:xlink="http://www.w3.org/1999/xlink" width="83.521" height="70.622" viewBox="0 0 83.521 70.622">
  <defs>
    <clipPath id="clip-path">
      <rect id="Rectangle_11605" data-name="Rectangle 11605" width="83.521" height="70.622" fill="#fff"/>
    </clipPath>
  </defs>
  <g id="Group_1172" data-name="Group 1172" transform="translate(46)">
    <g id="Group_1171" data-name="Group 1171" transform="translate(-46)" clip-path="url(#clip-path)">
      <path id="Path_5184" data-name="Path 5184" d="M31.683,70.615q-13.007,0-26.013,0a5.726,5.726,0,0,1-4.015-1.246A4.441,4.441,0,0,1,0,65.85Q.04,45.2.017,24.542a4.6,4.6,0,0,1,4.276-4.585c1.475-.1,2.962-.078,4.442-.038.781.021,1.1-.214,1.067-1.029-.05-1.261-.039-2.527,0-3.79A4.939,4.939,0,0,1,15.02,9.974c1.176-.017,2.358-.07,3.528.016,1.021.075,1.282-.335,1.23-1.276-.065-1.173-.042-2.353,0-3.528.1-3.243,2.064-5.163,5.292-5.171C30.686,0,36.307.03,41.927,0a5.07,5.07,0,0,1,4.9,3.041c.761,1.516,1.557,3.018,2.227,4.574a1.8,1.8,0,0,0,1.954,1.256c8.932-.048,17.865-.016,26.8-.036a5.484,5.484,0,0,1,4.475,1.712,4.754,4.754,0,0,1,1.239,3.211c-.011,10.675.009,21.351-.018,32.026a4.786,4.786,0,0,1-4.8,4.837c-1.393.051-2.789.046-4.182.011-.731-.018-1,.234-.977.98.044,1.393.036,2.789-.006,4.182a4.825,4.825,0,0,1-4.588,4.786,38.554,38.554,0,0,1-4.18.032c-.938-.038-1.212.325-1.16,1.213.063,1.086.023,2.178.013,3.267-.033,3.492-2.018,5.488-5.537,5.515-3.485.026-6.971.006-10.457.006H31.683m-.065-4.939c8.5,0,16.993-.025,25.489.028,1.225.008,1.624-.256,1.616-1.557q-.086-14.443,0-28.888c.01-1.377-.411-1.637-1.687-1.628-8.8.054-17.6-.012-26.4.052A5.53,5.53,0,0,1,24.97,30.16c-.631-1.431-1.426-2.791-2.047-4.225a1.633,1.633,0,0,0-1.775-1.113q-7.516.068-15.032,0c-1.063-.011-1.4.243-1.394,1.36q.062,19.084,0,38.169c0,1.127.358,1.355,1.406,1.35,8.5-.039,16.993-.022,25.49-.022M78.659,29.9V16.7c0-2.922,0-2.922-2.95-2.922-8.407,0-16.815-.029-25.222.017a5.472,5.472,0,0,1-5.582-3.456c-.667-1.509-1.518-2.939-2.168-4.454a1.531,1.531,0,0,0-1.7-1.027c-4.181.039-8.364-.007-12.545.033-1.244.012-2.851-.564-3.635.287-.707.768-.09,2.34-.223,3.544-.122,1.108.377,1.3,1.344,1.27,2.046-.06,4.094,0,6.142-.021a4.875,4.875,0,0,1,4.7,2.918c.8,1.591,1.637,3.171,2.34,4.806a1.711,1.711,0,0,0,1.887,1.14c8.886-.036,17.774.068,26.659-.067,3.306-.05,5.992,1.99,5.9,5.841-.164,6.661-.031,13.329-.063,19.994,0,.88.2,1.277,1.152,1.2a16.206,16.206,0,0,1,2.741,0c1.005.089,1.25-.311,1.242-1.265-.042-4.879-.019-9.758-.019-14.636m-9.983,9.932q0-7.191,0-14.381c0-1.739,0-1.74-1.789-1.74-8.759,0-17.519-.038-26.278.022-2.706.019-4.583-.992-5.678-3.5-.677-1.553-1.5-3.04-2.233-4.571a1.155,1.155,0,0,0-1.168-.807q-7.975.034-15.95,0c-.669,0-.932.231-.9.914A29.866,29.866,0,0,1,14.67,18.9c-.055.841.287,1.03,1.059,1.015,2.135-.042,4.271,0,6.406-.015a4.95,4.95,0,0,1,4.779,3.016c.789,1.6,1.661,3.162,2.351,4.8a1.606,1.606,0,0,0,1.792,1.08c8.977-.026,17.956.077,26.932-.064a5.353,5.353,0,0,1,5.679,5.657c-.14,5.88-.048,11.766-.031,17.649,0,1.168-.491,2.675.2,3.417.764.819,2.313.134,3.505.291,1.146.151,1.365-.378,1.355-1.411-.046-4.837-.02-9.674-.02-14.512" transform="translate(0 0)" fill="#fff"/>
      <path id="Path_5185" data-name="Path 5185" d="M162.068,213.3c0,1.879-.69,2.919-2.1,3.094a2.338,2.338,0,0,1-2.437-1.17,4.7,4.7,0,0,1,.12-4.127,2.372,2.372,0,0,1,2.535-.95c1.269.248,1.889,1.318,1.887,3.153" transform="translate(-116.015 -155.136)" fill="#fff"/>
      <path id="Path_5186" data-name="Path 5186" d="M184.709,213.379c.018-2.743,1.851-4.109,3.67-3.043,1.736,1.016,1.777,4.6.064,5.652a2.447,2.447,0,0,1-3.658-1.621,5.894,5.894,0,0,1-.076-.987" transform="translate(-136.397 -155.054)" fill="#fff"/>
    </g>
  </g>
</svg>
