<svg id="Group_1169" data-name="Group 1169" xmlns="http://www.w3.org/2000/svg" xmlns:xlink="http://www.w3.org/1999/xlink" width="93.342" height="91.238" viewBox="0 0 93.342 91.238">
  <defs>
    <clipPath id="clip-path">
      <rect id="Rectangle_11604" data-name="Rectangle 11604" width="93.342" height="91.238" fill="#00ff5c"/>
    </clipPath>
  </defs>
  <g id="Group_1168" data-name="Group 1168" clip-path="url(#clip-path)">
    <path id="Path_5181" data-name="Path 5181" d="M9.385,67.722a6.115,6.115,0,0,1-3.062-.154c-2.364-1.118-2.707-4.122-.7-6.04,2.689-2.569,3.422-5.237,2.2-8.215A7.1,7.1,0,0,0,2.9,49.106C.451,48.393-.573,46.351.318,44.193a3.2,3.2,0,0,1,2.407-2.027A7.045,7.045,0,0,0,5.628,29.7,3.3,3.3,0,0,1,4.584,25.52a3.366,3.366,0,0,1,3.769-2.1,9.37,9.37,0,0,0,4.273-.176,7.017,7.017,0,0,0,4.177-9.28c-.876-2.305-.648-3.662.809-4.823C19.041,8,20.381,8.1,22.483,9.479A7.047,7.047,0,0,0,33.535,4.02c.184-2.4.954-3.45,2.879-3.92,1.56-.38,2.968.394,4.04,2.222,3,5.121,9.421,5.123,12.429,0,1.548-2.633,4.308-3.1,6.107-1.043a4,4,0,0,1,.825,2.564,6.9,6.9,0,0,0,4.005,6.191,6.741,6.741,0,0,0,7.173-.672c1.887-1.3,3.324-1.348,4.732-.227,1.428,1.137,1.7,2.582.886,4.67-2.012,5.147,1.5,10.028,7,9.731.057,0,.115-.005.172-.014,2.052-.313,4-.257,4.981,1.987.933,2.145-.347,3.491-1.782,4.923-3.776,3.768-2.062,9.914,3.137,11.575,2.492.8,3.6,2.328,3.119,4.373a3.266,3.266,0,0,1-2.619,2.682A7.046,7.046,0,0,0,87.707,61.53a3.31,3.31,0,0,1,1.049,4.185,3.368,3.368,0,0,1-3.768,2.1,9.429,9.429,0,0,0-4.273.175,7.02,7.02,0,0,0-4.183,9.278c.876,2.3.65,3.666-.8,4.825-1.432,1.141-2.771,1.05-4.871-.333A7.045,7.045,0,0,0,59.8,87.214c-.182,2.4-.954,3.453-2.877,3.923-1.559.381-2.965-.391-4.04-2.22-3.011-5.121-9.429-5.125-12.43-.009-1.544,2.632-4.31,3.107-6.108,1.049a3.989,3.989,0,0,1-.825-2.564,6.866,6.866,0,0,0-3.85-6.116,6.768,6.768,0,0,0-7.332.6c-1.878,1.3-3.325,1.343-4.734.22-1.426-1.135-1.761-2.606-.87-4.665a6.96,6.96,0,0,0-7.354-9.707M29.557,64.6c.789-.012,1.325-.742,1.927-1.343Q47.914,46.84,64.331,30.41A8.085,8.085,0,0,0,65.438,29.1a1.479,1.479,0,0,0-.245-1.906,1.519,1.519,0,0,0-2.032-.332,6.746,6.746,0,0,0-1.179.995Q45.429,44.4,28.89,60.953a5.282,5.282,0,0,0-.986,1.183A1.7,1.7,0,0,0,29.557,64.6M44.928,33.545A10.354,10.354,0,1,0,34.465,43.879,10.374,10.374,0,0,0,44.928,33.545m13.9,13.815a10.355,10.355,0,1,0,10.293,10.5,10.376,10.376,0,0,0-10.293-10.5" transform="translate(0 0)" fill="#00ff5c"/>
    <path id="Path_5182" data-name="Path 5182" d="M86.9,90.831a6.911,6.911,0,1,1,6.969-6.853A6.92,6.92,0,0,1,86.9,90.831" transform="translate(-52.384 -50.396)" fill="#00ff5c"/>
    <path id="Path_5183" data-name="Path 5183" d="M156.966,160.832a6.911,6.911,0,1,1,6.9-6.919,6.924,6.924,0,0,1-6.9,6.919" transform="translate(-98.194 -96.206)" fill="#00ff5c"/>
  </g>
</svg>
