<svg xmlns="http://www.w3.org/2000/svg" width="20.273" height="23.169" viewBox="0 0 20.273 23.169">
  <path id="Path_14042" data-name="Path 14042" d="M10.136-10.291a5.792,5.792,0,0,0,5.792-5.792,5.792,5.792,0,0,0-5.792-5.792,5.792,5.792,0,0,0-5.792,5.792A5.792,5.792,0,0,0,10.136-10.291Zm4.055,1.448h-.756a7.886,7.886,0,0,1-3.3.724,7.9,7.9,0,0,1-3.3-.724H6.082A6.083,6.083,0,0,0,0-2.761V-.878A2.173,2.173,0,0,0,2.172,1.294H18.1A2.173,2.173,0,0,0,20.273-.878V-2.761A6.083,6.083,0,0,0,14.191-8.843Z" transform="translate(0 21.875)" fill="#00ff5c" opacity="0.34"/>
</svg>
