<svg xmlns="http://www.w3.org/2000/svg" width="22.641" height="22.641" viewBox="0 0 22.641 22.641">
  <path id="Path_14044" data-name="Path 14044" d="M22.641-1.357V-13a2.4,2.4,0,0,0-.813-1.67c-1.1-.863-2.013-1.564-7.261-5.373-.744-.542-2.221-1.848-3.246-1.832-1.026-.015-2.5,1.29-3.246,1.832-5.249,3.809-6.159,4.51-7.261,5.373A2.4,2.4,0,0,0,0-13V-1.357A2.123,2.123,0,0,0,2.123.766h18.4A2.123,2.123,0,0,0,22.641-1.357Zm-2.9-8.694.4.584a.415.415,0,0,1,.062.2.4.4,0,0,1-.144.285c-1.012.747-2.452,1.8-4.657,3.4-.9.655-2.5,2.114-4.08,2.1-1.58.011-3.183-1.45-4.08-2.1-2.2-1.6-3.645-2.652-4.657-3.4a.4.4,0,0,1-.144-.285.415.415,0,0,1,.062-.2l.4-.584a.353.353,0,0,1,.5-.084c1.01.746,2.453,1.8,4.669,3.409.745.543,2.22,1.847,3.246,1.832,1.026.016,2.5-1.29,3.246-1.832,2.216-1.608,3.659-2.662,4.669-3.409A.353.353,0,0,1,19.737-10.051Z" transform="translate(0 21.875)" fill="#00ff5c" opacity="0.34"/>
</svg>
