<svg xmlns="http://www.w3.org/2000/svg" width="14.481" height="23.169" viewBox="0 0 14.481 23.169">
  <path id="Path_14043" data-name="Path 14043" d="M12.308-21.875H2.172A2.173,2.173,0,0,0,0-19.7V-.878A2.173,2.173,0,0,0,2.172,1.294H12.308A2.173,2.173,0,0,0,14.481-.878V-19.7A2.173,2.173,0,0,0,12.308-21.875ZM7.24-.154A1.446,1.446,0,0,1,5.792-1.6,1.446,1.446,0,0,1,7.24-3.05,1.446,1.446,0,0,1,8.688-1.6,1.446,1.446,0,0,1,7.24-.154Z" transform="translate(0 21.875)" fill="#00ff5c" opacity="0.34"/>
</svg>
